<svg width="194" height="40" viewBox="0 0 194 40" fill="none" xmlns="http://www.w3.org/2000/svg">
<path d="M60.968 14.008H65.576L70.112 25.912L74.696 14.008H79.256V31H76.376V16.888H76.328L71.168 31H69.056L63.896 16.888H63.848V31H60.968V14.008ZM81.2908 19.48H84.4588L87.6748 27.472H87.7228L90.6028 19.48H93.6028L88.1548 33.472C87.9468 34.016 87.7148 34.488 87.4588 34.888C87.2188 35.304 86.9308 35.648 86.5948 35.92C86.2588 36.208 85.8588 36.416 85.3948 36.544C84.9468 36.688 84.4028 36.76 83.7628 36.76C83.0108 36.76 82.2748 36.664 81.5548 36.472L81.9148 33.88C82.1388 33.96 82.3708 34.024 82.6108 34.072C82.8668 34.136 83.1228 34.168 83.3788 34.168C83.7308 34.168 84.0268 34.136 84.2668 34.072C84.5068 34.008 84.7068 33.904 84.8668 33.76C85.0428 33.632 85.1868 33.456 85.2988 33.232C85.4108 33.024 85.5308 32.768 85.6588 32.464L86.2108 31.096L81.2908 19.48ZM102.662 14.008H105.686V28.264H112.91V31H102.662V14.008ZM114.891 19.48H117.771V31H114.891V19.48ZM114.483 15.568C114.483 15.104 114.651 14.704 114.987 14.368C115.339 14.016 115.779 13.84 116.307 13.84C116.835 13.84 117.275 14.008 117.627 14.344C117.995 14.664 118.179 15.072 118.179 15.568C118.179 16.064 117.995 16.48 117.627 16.816C117.275 17.136 116.835 17.296 116.307 17.296C115.779 17.296 115.339 17.128 114.987 16.792C114.651 16.44 114.483 16.032 114.483 15.568ZM127.221 22.672C126.661 21.888 125.909 21.496 124.965 21.496C124.581 21.496 124.205 21.592 123.837 21.784C123.469 21.976 123.285 22.288 123.285 22.72C123.285 23.072 123.437 23.328 123.741 23.488C124.045 23.648 124.429 23.784 124.893 23.896C125.357 24.008 125.853 24.128 126.381 24.256C126.925 24.368 127.429 24.552 127.893 24.808C128.357 25.048 128.741 25.384 129.045 25.816C129.349 26.248 129.501 26.84 129.501 27.592C129.501 28.28 129.349 28.864 129.045 29.344C128.757 29.808 128.373 30.184 127.893 30.472C127.429 30.76 126.901 30.968 126.309 31.096C125.717 31.224 125.125 31.288 124.533 31.288C123.637 31.288 122.813 31.16 122.061 30.904C121.309 30.648 120.637 30.184 120.045 29.512L121.965 27.712C122.333 28.128 122.725 28.472 123.141 28.744C123.573 29 124.093 29.128 124.701 29.128C124.909 29.128 125.125 29.104 125.349 29.056C125.573 29.008 125.781 28.928 125.973 28.816C126.165 28.704 126.317 28.568 126.429 28.408C126.557 28.232 126.621 28.032 126.621 27.808C126.621 27.408 126.469 27.112 126.165 26.92C125.861 26.728 125.477 26.576 125.013 26.464C124.549 26.336 124.045 26.224 123.501 26.128C122.973 26.016 122.477 25.848 122.013 25.624C121.549 25.384 121.165 25.056 120.861 24.64C120.557 24.224 120.405 23.648 120.405 22.912C120.405 22.272 120.533 21.72 120.789 21.256C121.061 20.776 121.413 20.384 121.845 20.08C122.277 19.776 122.773 19.552 123.333 19.408C123.893 19.264 124.461 19.192 125.037 19.192C125.805 19.192 126.565 19.328 127.317 19.6C128.069 19.856 128.677 20.304 129.141 20.944L127.221 22.672ZM130.397 21.928V19.48H132.773V16.144H135.653V19.48H138.821V21.928H135.653V26.968C135.653 27.544 135.757 28 135.965 28.336C136.189 28.672 136.621 28.84 137.261 28.84C137.517 28.84 137.797 28.816 138.101 28.768C138.405 28.704 138.645 28.608 138.821 28.48V30.904C138.517 31.048 138.141 31.144 137.693 31.192C137.261 31.256 136.877 31.288 136.541 31.288C135.773 31.288 135.141 31.2 134.645 31.024C134.165 30.864 133.781 30.616 133.493 30.28C133.221 29.928 133.029 29.496 132.917 28.984C132.821 28.472 132.773 27.88 132.773 27.208V21.928H130.397ZM148.435 14.008H159.403V16.744H151.459V21.208H158.947V23.944H151.459V31H148.435V14.008ZM162 19.48H164.88V31H162V19.48ZM161.592 15.568C161.592 15.104 161.76 14.704 162.096 14.368C162.448 14.016 162.888 13.84 163.416 13.84C163.944 13.84 164.384 14.008 164.736 14.344C165.104 14.664 165.288 15.072 165.288 15.568C165.288 16.064 165.104 16.48 164.736 16.816C164.384 17.136 163.944 17.296 163.416 17.296C162.888 17.296 162.448 17.128 162.096 16.792C161.76 16.44 161.592 16.032 161.592 15.568ZM168.235 12.856H171.115V31H168.235V12.856ZM174.301 19.48H177.037V21.28H177.085C177.341 20.736 177.749 20.256 178.309 19.84C178.885 19.408 179.653 19.192 180.613 19.192C182.421 19.192 183.621 19.904 184.213 21.328C184.629 20.592 185.149 20.056 185.773 19.72C186.397 19.368 187.141 19.192 188.005 19.192C188.773 19.192 189.421 19.32 189.949 19.576C190.477 19.832 190.901 20.184 191.221 20.632C191.557 21.08 191.797 21.608 191.941 22.216C192.085 22.808 192.157 23.448 192.157 24.136V31H189.277V24.472C189.277 24.12 189.245 23.784 189.181 23.464C189.117 23.128 189.005 22.84 188.845 22.6C188.685 22.344 188.469 22.144 188.197 22C187.925 21.856 187.573 21.784 187.141 21.784C186.693 21.784 186.309 21.872 185.989 22.048C185.685 22.208 185.429 22.432 185.221 22.72C185.029 22.992 184.885 23.312 184.789 23.68C184.709 24.032 184.669 24.392 184.669 24.76V31H181.789V24.136C181.789 23.416 181.637 22.848 181.333 22.432C181.029 22 180.525 21.784 179.821 21.784C179.341 21.784 178.933 21.864 178.597 22.024C178.277 22.184 178.005 22.4 177.781 22.672C177.573 22.944 177.421 23.256 177.325 23.608C177.229 23.96 177.181 24.328 177.181 24.712V31H174.301V19.48Z" fill="white"/>
<g clip-path="url(#clip0)">
<path d="M39.1505 14.9907H2.47014C2.00997 14.9907 1.63647 15.3642 1.63647 15.8244V35.8318C1.63647 38.1293 3.50553 40 5.80466 40H35.8158C38.115 40 39.984 38.1293 39.984 35.8318V15.8244C39.9841 15.3641 39.6106 14.9907 39.1505 14.9907ZM38.3168 35.8317C38.3168 37.2106 37.1948 38.3327 35.8159 38.3327H5.80474C4.42587 38.3327 3.30381 37.2106 3.30381 35.8317V16.658H38.3168V35.8317Z" fill="#CD2E71"/>
<path d="M39.9574 7.27613L38.5385 1.89249C38.2118 0.583649 36.8746 -0.238297 35.5491 0.0618146L1.95994 8.03141C1.2997 8.18147 0.741133 8.58326 0.386001 9.16019C0.0308697 9.73705 -0.0741693 10.4173 0.0925332 11.0775L1.66312 17.2865C1.75651 17.6633 2.09664 17.9151 2.47006 17.9151C2.53672 17.9151 2.60511 17.9084 2.67677 17.8901C3.12194 17.7784 3.39204 17.3249 3.27864 16.8781L3.18696 16.5163L39.3354 8.30323C39.5555 8.25157 39.7472 8.1148 39.8639 7.92145C39.9824 7.72802 40.0141 7.49457 39.9574 7.27613ZM2.77861 14.899L1.70821 10.6724C1.65319 10.4523 1.68984 10.2256 1.80661 10.0322C1.92501 9.84044 2.11172 9.70703 2.33844 9.65366L35.9276 1.68578C35.9876 1.67077 36.0492 1.66413 36.1093 1.66413C36.4828 1.66413 36.8279 1.92086 36.9229 2.30601L38.125 6.86606L2.77861 14.899Z" fill="#CD2E71"/>
<path d="M9.51275 15.0774C9.09924 14.8757 8.60241 15.039 8.39233 15.4509L5.05774 22.12C4.85266 22.5318 5.01936 23.032 5.43123 23.2388C5.55292 23.2988 5.67969 23.3272 5.80473 23.3272C6.10985 23.3272 6.40496 23.1587 6.55165 22.8654L9.88625 16.1962C10.0913 15.7843 9.92454 15.2841 9.51275 15.0774Z" fill="#CD2E71"/>
<path d="M17.8476 15.0774C17.4358 14.8757 16.9356 15.039 16.7288 15.4509L13.3942 22.12C13.1891 22.5318 13.3558 23.032 13.7677 23.2388C13.8894 23.2988 14.0162 23.3272 14.1412 23.3272C14.4463 23.3272 14.7414 23.1587 14.8865 22.8654L18.2211 16.1962C18.4261 15.7843 18.2594 15.2841 17.8476 15.0774Z" fill="#CD2E71"/>
<path d="M26.184 15.0774C25.7738 14.8757 25.2736 15.039 25.0652 15.4509L21.7306 22.12C21.5255 22.5318 21.6922 23.032 22.1041 23.2388C22.2258 23.2988 22.3525 23.3272 22.4776 23.3272C22.7827 23.3272 23.0778 23.1587 23.2229 22.8654L26.5574 16.1962C26.7625 15.7843 26.5957 15.2841 26.184 15.0774Z" fill="#CD2E71"/>
<path d="M34.5204 15.0774C34.1069 14.8757 33.6101 15.039 33.4016 15.4509L30.067 22.12C29.862 22.5318 30.0287 23.032 30.4405 23.2388C30.5622 23.2988 30.689 23.3272 30.814 23.3272C31.1192 23.3272 31.4143 23.1587 31.5593 22.8654L34.8939 16.1962C35.0989 15.7843 34.9322 15.2841 34.5204 15.0774Z" fill="#CD2E71"/>
<path d="M39.1505 21.6599H2.47014C2.00997 21.6599 1.63647 22.0333 1.63647 22.4935C1.63647 22.9537 2.00997 23.3272 2.47014 23.3272H39.1505C39.6123 23.3272 39.9841 22.9537 39.9841 22.4935C39.9841 22.0333 39.6106 21.6599 39.1505 21.6599Z" fill="#CD2E71"/>
<path d="M10.5315 13.5352L4.78937 7.79303C4.46424 7.46791 3.93569 7.46791 3.61057 7.79303C3.28545 8.11816 3.28545 8.64671 3.61057 8.97183L9.35269 14.7156C9.51611 14.8773 9.72948 14.9591 9.94291 14.9591C10.1564 14.9591 10.3697 14.8774 10.5315 14.714C10.8566 14.3888 10.8566 13.8603 10.5315 13.5352Z" fill="#CD2E71"/>
<path d="M18.6878 11.6828L12.9407 5.94068C12.6156 5.61556 12.0871 5.61556 11.7619 5.94068C11.4368 6.2658 11.4368 6.79436 11.7619 7.11948L17.5074 12.8616C17.6708 13.0233 17.8842 13.1051 18.0976 13.1051C18.3111 13.1051 18.5244 13.0234 18.6879 12.8616C19.013 12.5365 19.013 12.0079 18.6878 11.6828Z" fill="#CD2E71"/>
<path d="M26.8376 9.83045L21.1004 4.08667C20.7753 3.76155 20.2468 3.76155 19.9216 4.08667C19.5965 4.4118 19.5965 4.94035 19.9216 5.26547L25.6588 11.0092C25.8222 11.1709 26.0355 11.2527 26.249 11.2527C26.4624 11.2527 26.6758 11.1727 26.8376 11.0092C27.1627 10.6841 27.1627 10.1556 26.8376 9.83045Z" fill="#CD2E71"/>
<path d="M34.9839 7.97974L29.2451 2.23597C28.92 1.91085 28.3914 1.91085 28.0663 2.23597C27.7412 2.56109 27.7412 3.08964 28.0663 3.41476L33.805 9.15854C33.9685 9.32024 34.1818 9.40199 34.3953 9.40199C34.6087 9.40199 34.8221 9.32031 34.9838 9.15854C35.309 8.83342 35.309 8.30486 34.9839 7.97974Z" fill="#CD2E71"/>
</g>
<defs>
<clipPath id="clip0">
<rect width="40" height="40" fill="white"/>
</clipPath>
</defs>
</svg>
