<svg width="75" height="75" viewBox="0 0 75 75" fill="none" xmlns="http://www.w3.org/2000/svg">
<path d="M37.5 0C16.8212 0 0 16.8229 0 37.5C0 58.1772 16.8212 75 37.5 75C58.1788 75 75 58.1772 75 37.5C75 16.8229 58.1788 0 37.5 0ZM52.4079 38.8138L30.5329 52.8763C30.2766 53.0426 29.9805 53.125 29.6875 53.125C29.4312 53.125 29.1718 53.0609 28.9399 52.9343C28.4363 52.6597 28.125 52.1347 28.125 51.5625V23.4375C28.125 22.8653 28.4363 22.3403 28.9399 22.0657C29.4343 21.7941 30.0538 21.8108 30.5329 22.1237L52.4079 36.1862C52.8535 36.473 53.125 36.969 53.125 37.5C53.125 38.031 52.8535 38.5269 52.4079 38.8138Z" fill="#C7C7C7"/>
</svg>
