<svg width="132" height="40" viewBox="0 0 132 40" fill="none" xmlns="http://www.w3.org/2000/svg">
<path d="M60.896 10.8809H66.608C67.424 10.8809 68.208 10.9609 68.96 11.1209C69.728 11.2809 70.4 11.5529 70.976 11.9369C71.552 12.3049 72.008 12.8089 72.344 13.4489C72.696 14.0729 72.872 14.8569 72.872 15.8009C72.872 16.8729 72.688 17.7369 72.32 18.3929C71.952 19.0489 71.456 19.5609 70.832 19.9289C70.208 20.2809 69.48 20.5209 68.648 20.6489C67.832 20.7769 66.976 20.8409 66.08 20.8409H63.92V27.8729H60.896V10.8809ZM65.744 18.2489C66.176 18.2489 66.624 18.2329 67.088 18.2009C67.552 18.1689 67.976 18.0729 68.36 17.9129C68.76 17.7529 69.08 17.5129 69.32 17.1929C69.576 16.8729 69.704 16.4249 69.704 15.8489C69.704 15.3209 69.592 14.9049 69.368 14.6009C69.144 14.2809 68.856 14.0409 68.504 13.8809C68.152 13.7049 67.76 13.5929 67.328 13.5449C66.896 13.4969 66.48 13.4729 66.08 13.4729H63.92V18.2489H65.744ZM75.3039 16.3529H78.1839V18.1769H78.2319C78.5519 17.5049 79.0079 16.9849 79.5999 16.6169C80.1919 16.2489 80.8719 16.0649 81.6399 16.0649C81.8159 16.0649 81.9839 16.0809 82.1439 16.1129C82.3199 16.1449 82.4959 16.1849 82.6719 16.2329V19.0169C82.4319 18.9529 82.1919 18.9049 81.9519 18.8729C81.7279 18.8249 81.5039 18.8009 81.2799 18.8009C80.6079 18.8009 80.0639 18.9289 79.6479 19.1849C79.2479 19.4249 78.9359 19.7049 78.7119 20.0249C78.5039 20.3449 78.3599 20.6649 78.2799 20.9849C78.2159 21.3049 78.1839 21.5449 78.1839 21.7049V27.8729H75.3039V16.3529ZM83.6341 22.1129C83.6341 21.2009 83.7941 20.3769 84.1141 19.6409C84.4501 18.8889 84.8981 18.2489 85.4581 17.7209C86.0181 17.1929 86.6821 16.7849 87.4501 16.4969C88.2181 16.2089 89.0341 16.0649 89.8981 16.0649C90.7621 16.0649 91.5781 16.2089 92.3461 16.4969C93.1141 16.7849 93.7781 17.1929 94.3381 17.7209C94.8981 18.2489 95.3381 18.8889 95.6581 19.6409C95.9941 20.3769 96.1621 21.2009 96.1621 22.1129C96.1621 23.0249 95.9941 23.8569 95.6581 24.6089C95.3381 25.3449 94.8981 25.9769 94.3381 26.5049C93.7781 27.0329 93.1141 27.4409 92.3461 27.7289C91.5781 28.0169 90.7621 28.1609 89.8981 28.1609C89.0341 28.1609 88.2181 28.0169 87.4501 27.7289C86.6821 27.4409 86.0181 27.0329 85.4581 26.5049C84.8981 25.9769 84.4501 25.3449 84.1141 24.6089C83.7941 23.8569 83.6341 23.0249 83.6341 22.1129ZM86.5141 22.1129C86.5141 22.5609 86.5861 22.9929 86.7301 23.4089C86.8901 23.8249 87.1141 24.1929 87.4021 24.5129C87.7061 24.8329 88.0661 25.0889 88.4821 25.2809C88.8981 25.4729 89.3701 25.5689 89.8981 25.5689C90.4261 25.5689 90.8981 25.4729 91.3141 25.2809C91.7301 25.0889 92.0821 24.8329 92.3701 24.5129C92.6741 24.1929 92.8981 23.8249 93.0421 23.4089C93.2021 22.9929 93.2821 22.5609 93.2821 22.1129C93.2821 21.6649 93.2021 21.2329 93.0421 20.8169C92.8981 20.4009 92.6741 20.0329 92.3701 19.7129C92.0821 19.3929 91.7301 19.1369 91.3141 18.9449C90.8981 18.7529 90.4261 18.6569 89.8981 18.6569C89.3701 18.6569 88.8981 18.7529 88.4821 18.9449C88.0661 19.1369 87.7061 19.3929 87.4021 19.7129C87.1141 20.0329 86.8901 20.4009 86.7301 20.8169C86.5861 21.2329 86.5141 21.6649 86.5141 22.1129ZM99.8906 18.8009H97.5146V16.3529H99.8906V14.7209C99.8906 13.9209 99.9466 13.2009 100.059 12.5609C100.171 11.9049 100.379 11.3449 100.683 10.8809C101.003 10.4169 101.443 10.0649 102.003 9.82492C102.563 9.56892 103.291 9.44092 104.187 9.44092C104.843 9.44092 105.451 9.49692 106.011 9.60892L105.819 12.0569C105.611 12.0089 105.411 11.9689 105.219 11.9369C105.027 11.9049 104.827 11.8889 104.619 11.8889C104.219 11.8889 103.899 11.9529 103.659 12.0809C103.419 12.2089 103.227 12.3849 103.083 12.6089C102.955 12.8169 102.867 13.0649 102.819 13.3529C102.787 13.6409 102.771 13.9449 102.771 14.2649V16.3529H105.435V18.8009H102.771V27.8729H99.8906V18.8009ZM107.307 16.3529H110.187V27.8729H107.307V16.3529ZM106.923 12.4409C106.923 11.9769 107.091 11.5769 107.427 11.2409C107.779 10.8889 108.219 10.7129 108.747 10.7129C109.275 10.7129 109.715 10.8809 110.067 11.2169C110.435 11.5369 110.619 11.9449 110.619 12.4409C110.619 12.9369 110.435 13.3529 110.067 13.6889C109.715 14.0089 109.275 14.1689 108.747 14.1689C108.219 14.1689 107.779 14.0009 107.427 13.6649C107.091 13.3129 106.923 12.9049 106.923 12.4409ZM113.133 9.72892H116.013V27.8729H113.133V9.72892ZM121.624 23.1209C121.72 23.9849 122.056 24.6569 122.632 25.1369C123.208 25.6169 123.904 25.8569 124.72 25.8569C125.44 25.8569 126.04 25.7129 126.52 25.4249C127.016 25.1209 127.448 24.7449 127.816 24.2969L129.88 25.8569C129.208 26.6889 128.456 27.2809 127.624 27.6329C126.792 27.9849 125.92 28.1609 125.008 28.1609C124.144 28.1609 123.328 28.0169 122.56 27.7289C121.792 27.4409 121.128 27.0329 120.568 26.5049C120.008 25.9769 119.56 25.3449 119.224 24.6089C118.904 23.8569 118.744 23.0249 118.744 22.1129C118.744 21.2009 118.904 20.3769 119.224 19.6409C119.56 18.8889 120.008 18.2489 120.568 17.7209C121.128 17.1929 121.792 16.7849 122.56 16.4969C123.328 16.2089 124.144 16.0649 125.008 16.0649C125.808 16.0649 126.536 16.2089 127.192 16.4969C127.864 16.7689 128.432 17.1689 128.896 17.6969C129.376 18.2249 129.744 18.8809 130 19.6649C130.272 20.4329 130.408 21.3209 130.408 22.3289V23.1209H121.624ZM127.528 20.9609C127.512 20.1129 127.248 19.4489 126.736 18.9689C126.224 18.4729 125.512 18.2249 124.6 18.2249C123.736 18.2249 123.048 18.4729 122.536 18.9689C122.04 19.4649 121.736 20.1289 121.624 20.9609H127.528Z" fill="white"/>
<g clip-path="url(#clip0)">
<path d="M19.715 19.2682C22.3621 19.2682 24.6539 18.3188 26.5271 16.4456C28.3997 14.5728 29.3494 12.2812 29.3494 9.63379C29.3494 6.9873 28.4 4.69543 26.5268 2.82196C24.6536 0.949402 22.3618 0 19.715 0C17.0676 0 14.776 0.949402 12.9031 2.82227C11.0303 4.69513 10.0806 6.987 10.0806 9.63379C10.0806 12.2812 11.0303 14.5731 12.9031 16.4459C14.7766 18.3185 17.0685 19.2682 19.715 19.2682ZM14.5609 4.47968C15.9979 3.0426 17.6837 2.34406 19.715 2.34406C21.7459 2.34406 23.432 3.0426 24.8694 4.47968C26.3065 5.91705 27.0053 7.60315 27.0053 9.63379C27.0053 11.665 26.3065 13.3508 24.8694 14.7882C23.432 16.2256 21.7459 16.9241 19.715 16.9241C17.6843 16.9241 15.9985 16.2253 14.5609 14.7882C13.1235 13.3511 12.4246 11.665 12.4246 9.63379C12.4246 7.60315 13.1235 5.91705 14.5609 4.47968Z" fill="#CD2E71"/>
<path d="M36.5726 30.7582C36.5186 29.9788 36.4093 29.1285 36.2485 28.2307C36.0861 27.3262 35.8771 26.4711 35.6268 25.6895C35.368 24.8817 35.0168 24.084 34.5819 23.3195C34.1312 22.5261 33.6014 21.8351 33.0069 21.2666C32.3853 20.6718 31.6241 20.1936 30.744 19.8448C29.8669 19.4978 28.895 19.322 27.8552 19.322C27.4469 19.322 27.052 19.4896 26.2894 19.9861C25.82 20.2922 25.271 20.6462 24.6582 21.0377C24.1342 21.3716 23.4244 21.6844 22.5476 21.9676C21.6922 22.2444 20.8237 22.3848 19.9661 22.3848C19.1092 22.3848 18.2407 22.2444 17.3846 21.9676C16.5088 21.6847 15.7986 21.3719 15.2756 21.038C14.6686 20.6501 14.1193 20.2961 13.6429 19.9858C12.8809 19.4893 12.486 19.3217 12.0776 19.3217C11.0376 19.3217 10.0659 19.4978 9.18915 19.8451C8.30963 20.1933 7.54822 20.6715 6.92596 21.2669C6.33148 21.8358 5.8017 22.5264 5.35126 23.3195C4.91699 24.084 4.56543 24.8814 4.30664 25.6898C4.0567 26.4714 3.84766 27.3262 3.6853 28.2307C3.52417 29.1273 3.41522 29.9778 3.36121 30.7591C3.30811 31.5229 3.28125 32.3179 3.28125 33.1212C3.28125 35.2092 3.94501 36.8995 5.25391 38.1462C6.54663 39.3763 8.25684 40.0001 10.3372 40.0001H29.5975C31.6772 40.0001 33.3875 39.3763 34.6805 38.1462C35.9897 36.9004 36.6534 35.2095 36.6534 33.1208C36.6531 32.3149 36.626 31.5199 36.5726 30.7582ZM33.0643 36.4479C32.2101 37.2609 31.076 37.6561 29.5972 37.6561H10.3372C8.85803 37.6561 7.724 37.2609 6.87012 36.4482C6.03241 35.6508 5.62531 34.5622 5.62531 33.1212C5.62531 32.3716 5.65002 31.6316 5.69946 30.9211C5.74768 30.2241 5.84625 29.4584 5.99243 28.6448C6.13678 27.8413 6.3205 27.0872 6.539 26.4045C6.74866 25.7499 7.03461 25.1017 7.38922 24.4774C7.72766 23.8823 8.11707 23.3717 8.54675 22.9603C8.94867 22.5755 9.45526 22.2606 10.0522 22.0244C10.6042 21.8058 11.2247 21.6862 11.8982 21.6682C11.9803 21.7119 12.1265 21.7952 12.3633 21.9496C12.8452 22.2636 13.4006 22.6219 14.0146 23.014C14.7067 23.4553 15.5984 23.8539 16.6638 24.1978C17.753 24.55 18.8638 24.7288 19.9664 24.7288C21.069 24.7288 22.1802 24.55 23.2687 24.1981C24.335 23.8536 25.2264 23.4553 25.9195 23.0134C26.5479 22.6118 27.0877 22.2639 27.5696 21.9496C27.8064 21.7955 27.9526 21.7119 28.0347 21.6682C28.7085 21.6862 29.3289 21.8058 29.8813 22.0244C30.4779 22.2606 30.9845 22.5758 31.3864 22.9603C31.8161 23.3714 32.2055 23.882 32.5439 24.4777C32.8989 25.1017 33.1851 25.7502 33.3945 26.4042C33.6133 27.0878 33.7973 27.8416 33.9413 28.6445C34.0872 29.4597 34.1861 30.2256 34.2343 30.9214V30.9221C34.2841 31.6298 34.3091 32.3695 34.3094 33.1212C34.3091 34.5625 33.902 35.6508 33.0643 36.4479Z" fill="#CD2E71"/>
</g>
<defs>
<clipPath id="clip0">
<rect width="40" height="40.0001" fill="white"/>
</clipPath>
</defs>
</svg>
